<svg class="custom-logo" xmlns="http://www.w3.org/2000/svg" width="200" height="40" fill="none"
    viewBox="0 0 200 40">
    <path class="svg__icon" fill="#E0F5F8" fill-rule="evenodd"
        d="M193.198.161a.903.903 0 0 0-.365-.079.803.803 0 0 0-.578.236.816.816 0 0 0-.243.58.767.767 0 0 0 .549.783 2.028 2.028 0 0 1-.687 1.352l.305.41a2.936 2.936 0 0 0 1.553-2.365.925.925 0 0 0-.232-.697.92.92 0 0 0-.302-.22ZM96.984 11.005h1.22V.098h-1.22v10.907ZM94.858 5.3h-3.012v.95h1.825v3.41a4.481 4.481 0 0 1-1.87.431c-2.606 0-3.228-1.935-3.228-4.205 0-2.763 1.155-4.509 3.411-4.509a4.384 4.384 0 0 1 2.325.672l.488-.971a5.166 5.166 0 0 0-2.846-.75c-3.772 0-4.731 3.266-4.731 5.513 0 3.131 1.142 5.279 4.471 5.279a6.147 6.147 0 0 0 3.167-.82v-5Zm8.394 5.828c-2.439 0-3.195-1.807-3.195-3.836 0-2.03.915-3.943 3.35-3.943s3.223 1.95 3.223 3.914c0 1.963-.772 3.865-3.378 3.865Zm.155-6.812c-1.626 0-2.057 1.566-2.057 2.976 0 1.492.305 2.869 2.057 2.869 1.626 0 1.931-1.517 1.931-2.87 0-1.352-.285-2.975-1.927-2.975h-.004Zm8.357-.968c-.79.023-1.562.25-2.24.66l-.073-.061.045-1.64V.098h-1.248v10.358a7.67 7.67 0 0 0 3.106.672c2.447 0 3.207-1.746 3.207-3.837 0-2.27-.638-3.943-2.797-3.943Zm-2.268 6.448V5.02a4.284 4.284 0 0 1 2.024-.627c1.033 0 1.765.553 1.765 2.93 0 2.115-.761 2.824-2.009 2.824a4.437 4.437 0 0 1-1.78-.352Zm12.325-3.947v5.156h-1.089l-.073-.82a.058.058 0 0 0-.033 0 3.785 3.785 0 0 1-2.573.935c-1.72 0-2.191-1.193-2.191-2.086 0-1.41 1.069-2.193 2.528-2.271l2.236-.123v-.545c0-1.23-.317-1.763-1.598-1.763a7.858 7.858 0 0 0-2.341.41 15.273 15.273 0 0 0-.244-.82 7.669 7.669 0 0 1 2.846-.586c1.605.013 2.532.673 2.532 2.513Zm-3.122 1.705c-1.004.062-1.508.553-1.508 1.349 0 .893.427 1.336 1.386 1.336a3.271 3.271 0 0 0 2.053-.951V7.43l-1.931.123Zm5.142 3.451h1.22V.098h-1.22v10.907Zm11.249-4.312h-2.252v4.312h-1.293V.496h3.415c1.902 0 3.252 1.045 3.252 3.054 0 1.274-.72 3.143-3.122 3.143Zm-2.252-5.2v4.22h2.069c.971 0 1.963-.475 1.963-2.118 0-1.443-.882-2.103-2.032-2.103h-2Zm12.003 9.512V5.85c0-1.84-.939-2.5-2.553-2.513a7.668 7.668 0 0 0-2.845.587c.089.266.167.54.244.82a7.852 7.852 0 0 1 2.341-.41c1.281 0 1.598.532 1.598 1.762v.537l-2.236.123c-1.459.078-2.524.86-2.524 2.27 0 .894.471 2.087 2.191 2.087a3.776 3.776 0 0 0 2.581-.927.058.058 0 0 1 .033 0l.077.82h1.093Zm-4.642-2.102c0-.796.504-1.287 1.508-1.349l1.931-.123v1.857a3.271 3.271 0 0 1-2.053.95c-.959 0-1.386-.442-1.386-1.335Zm7.769-4.034H148a3.334 3.334 0 0 1 1.214-1.123 3.295 3.295 0 0 1 1.599-.397v1.23a3.525 3.525 0 0 0-2.784 1.336v5.09h-1.281V3.521h1.171l.049 1.348Zm6.358.485c-.416.422-.831.843-1.237 1.266l-.105-.062.053-1.688V.11h-1.248v10.895h1.248V8.062l.837-.844.579.888.013.021.01.015.005.008.005.007c.618.95 1.238 1.902 1.868 2.848h1.37l-2.598-3.91c-.077-.113-.167-.219-.256-.324-.086-.101-.171-.201-.244-.307.345-.354.699-.714 1.053-1.076l.002-.001c.614-.626 1.232-1.256 1.819-1.866h-1.398a94.513 94.513 0 0 1-1.776 1.833Zm5.398-2.985a.808.808 0 0 1-.575-.24.82.82 0 0 1 0-1.16.808.808 0 0 1 .575-.24.805.805 0 0 1 .59.232.817.817 0 0 1 .247.588.85.85 0 0 1-.255.58.837.837 0 0 1-.582.24Zm-.626 8.636V3.521h1.219v7.484h-1.219Zm8.264-4.918v4.918h1.219V5.76c0-1.12-.142-2.41-2.175-2.41-.92.049-1.811.34-2.585.844l-.049-.029v-.643h-1.219v7.484h1.248v-5.87a5.195 5.195 0 0 1 2.268-.737c1.171 0 1.293.643 1.293 1.689Zm3.118 3.599a5.495 5.495 0 0 0 2.284.508c.944 0 1.687-.291 1.687-1.197 0-.8-.76-1.074-1.597-1.365l-.247-.087h-.001c-1.196-.423-2.264-.8-2.264-2.093 0-1.443 1.219-2.103 2.695-2.103a4.65 4.65 0 0 1 2.219.537l-.378.877a4.811 4.811 0 0 0-1.857-.41c-.777 0-1.509.279-1.509 1.107 0 .616.895.91 1.507 1.11l.079.025.091.03c1.22.4 2.466.808 2.466 2.347 0 1.505-1.22 2.148-2.939 2.148a5.877 5.877 0 0 1-2.647-.582l.411-.852Zm6.528-2.394c0 2.029.756 3.836 3.195 3.836 2.602 0 3.378-1.902 3.378-3.865 0-1.963-.788-3.914-3.223-3.914-2.435 0-3.35 1.914-3.35 3.943Zm1.293 0c0-1.41.411-2.976 2.057-2.976 1.642 0 1.931 1.623 1.931 2.976 0 1.352-.305 2.869-1.931 2.869-1.752 0-2.057-1.377-2.057-2.87Zm11.703 3.713V6.087c0-1.046-.122-1.69-1.292-1.69a5.185 5.185 0 0 0-2.269.739v5.87h-1.248V3.52h1.22v.643l.045.029a5.29 5.29 0 0 1 2.589-.844c2.032 0 2.175 1.29 2.175 2.41v5.246h-1.22Zm4.712-1.32c.72.334 1.503.508 2.296.509.943 0 1.691-.291 1.691-1.197 0-.8-.76-1.074-1.597-1.365l-.248-.088c-1.196-.422-2.264-.8-2.264-2.092 0-1.443 1.219-2.103 2.695-2.103a4.65 4.65 0 0 1 2.219.537l-.378.877a4.816 4.816 0 0 0-1.858-.41c-.776 0-1.508.279-1.508 1.107 0 .616.895.91 1.507 1.11l.079.025.091.03c1.22.4 2.466.808 2.466 2.347 0 1.505-1.22 2.148-2.939 2.148a5.874 5.874 0 0 1-2.659-.574l.407-.86ZM94.858 21.47h-3.012v.95h1.825v3.407a4.531 4.531 0 0 1-1.87.41c-2.606 0-3.228-1.931-3.228-4.202 0-2.758 1.155-4.508 3.411-4.508a4.393 4.393 0 0 1 2.325.676l.488-.96a5.166 5.166 0 0 0-2.846-.753c-3.772 0-4.731 3.27-4.731 5.525 0 3.131 1.142 5.279 4.471 5.279a6.147 6.147 0 0 0 3.167-.82V21.47Zm7.987 1.627v.598H97.87c0 1.398.455 2.656 2.114 2.656a5.689 5.689 0 0 0 2.373-.529l.305.796a5.652 5.652 0 0 1-2.768.692c-2.646 0-3.3-1.766-3.3-3.853 0-1.332.455-3.926 3.251-3.926 2.972-.008 3 2.643 3 3.566Zm-4.96-.213h3.79c0-1.443-.427-2.46-1.797-2.46-1.37 0-1.91 1.185-1.992 2.46Zm11.351-.648v4.943l1.231-.017v-5.246c0-1.123-.142-2.41-2.175-2.41-.919.05-1.81.341-2.585.844l-.045-.033v-.643h-1.219v7.505h1.248v-5.894a5.188 5.188 0 0 1 2.252-.734c1.171 0 1.293.644 1.293 1.685Zm9.113.86v.6h-4.975c0 1.397.459 2.655 2.118 2.655.826 0 1.643-.18 2.394-.529l.301.796a5.656 5.656 0 0 1-2.769.692c-2.646 0-3.3-1.766-3.3-3.853 0-1.332.455-3.926 3.252-3.926 2.951-.008 2.979 2.643 2.979 3.566Zm-4.959-.212h3.789c0-1.443-.427-2.46-1.797-2.46-1.37 0-1.903 1.185-1.992 2.46Zm8.277-3.21v-1.885l-.789.155-.382 1.64-1.142.352v.66h1.081v4.866c0 1.225.671 1.84 1.992 1.84a4.599 4.599 0 0 0 1.857-.41l-.199-.844a5.365 5.365 0 0 1-1.398.258c-.838 0-1.033-.508-1.033-1.23V20.58h2.252v-.906h-2.239Zm4.719-1.135a.82.82 0 0 1-.158-1.624.804.804 0 0 1 .834.349.82.82 0 0 1-.101 1.035.808.808 0 0 1-.575.24Zm-.626 8.64v-7.505h1.22v7.505h-1.22Zm8.476-6.169.443-.89a4.263 4.263 0 0 0-2.289-.606c-2.784 0-3.378 2.423-3.378 4.005 0 2.238.846 3.775 3.285 3.775a4.375 4.375 0 0 0 2.573-.783l-.378-.82a3.997 3.997 0 0 1-2.134.61c-1.59 0-2.033-1.27-2.033-2.82 0-1.782.683-2.946 2.147-2.946a3.472 3.472 0 0 1 1.764.475Zm2.053 4.849a5.479 5.479 0 0 0 2.301.504c.943 0 1.687-.29 1.687-1.197 0-.795-.761-1.074-1.598-1.365l-.156-.053c-1.222-.416-2.344-.798-2.344-2.123 0-1.381 1.22-2.103 2.695-2.103a4.641 4.641 0 0 1 2.22.537l-.378.873a4.788 4.788 0 0 0-1.858-.41c-.776 0-1.504.275-1.504 1.103 0 .627.91.92 1.522 1.116l.059.02.091.03c1.22.399 2.466.807 2.466 2.35 0 1.505-1.219 2.149-2.939 2.149a5.927 5.927 0 0 1-2.646-.583l.382-.848Zm12.447-2.992h2.252c2.406 0 3.105-1.873 3.097-3.148 0-2.008-1.349-3.05-3.252-3.05h-3.406v10.51h1.309v-4.312Zm0-.983v-4.218h2.008c1.15 0 2.032.66 2.032 2.103 0 1.64-.987 2.115-1.963 2.115h-2.077Zm8.174-.845h.033c.305-.47.722-.856 1.214-1.121a3.292 3.292 0 0 1 1.599-.395v1.23a3.529 3.529 0 0 0-2.785 1.332v5.094h-1.28v-7.505h1.171l.048 1.365Zm3.663 2.426c0 2.025.756 3.837 3.195 3.837 2.606 0 3.378-1.906 3.378-3.87 0-1.963-.788-3.91-3.223-3.91-2.435 0-3.35 1.919-3.35 3.944Zm1.293.005c0-1.41.431-2.976 2.057-2.976 1.642 0 1.931 1.627 1.931 2.976 0 1.348-.305 2.869-1.931 2.869-1.752 0-2.057-1.382-2.057-2.87Zm11.276-3.796c.813-.045 1.626-.107 2.439-.168v.906h-1.353l-.033.061a2.109 2.109 0 0 1 .565 1.517c0 1.443-1.187 2.5-2.967 2.5h-.972c-.764 0-1.248.475-1.248.906 0 .352.256.598.895.598h1.89c2.008 0 3.012.66 3.012 1.996 0 1.427-1.463 2.484-3.76 2.484-2.439 0-3.212-1.012-3.212-2.05a1.95 1.95 0 0 1 .291-.979c.182-.294.44-.533.746-.692a1.145 1.145 0 0 1-.696-.42 1.167 1.167 0 0 1-.247-.777c.018-.374.162-.73.408-1.01.246-.279.58-.465.946-.527v-.074a2.04 2.04 0 0 1-.723-.816 2.064 2.064 0 0 1-.204-1.074c0-1.779 1.475-2.545 2.845-2.545.465-.018.93.037 1.378.164Zm-2.585 7.21a1.455 1.455 0 0 0-.943 1.29c0 .739.549 1.382 2.13 1.382 1.293 0 2.341-.525 2.341-1.504 0-.615-.426-1.168-1.902-1.168h-1.626Zm1.264-6.39c-1.02 0-1.646.598-1.646 1.533a1.527 1.527 0 0 0 .458 1.162 1.506 1.506 0 0 0 1.168.42c.971 0 1.675-.57 1.675-1.599.004-.725-.395-1.516-1.655-1.516Zm6.435.545h-.032l-.045-1.365h-1.171v7.505h1.265v-5.111a3.495 3.495 0 0 1 2.784-1.332v-1.23a3.3 3.3 0 0 0-1.594.406c-.49.268-.904.655-1.207 1.127Zm9.435.984v5.156h-1.106l-.073-.82a.062.062 0 0 0-.032 0 3.816 3.816 0 0 1-2.574.935c-1.719 0-2.191-1.197-2.191-2.086 0-1.41 1.065-2.193 2.529-2.271l2.236-.123v-.545c0-1.23-.322-1.767-1.598-1.767a7.88 7.88 0 0 0-2.346.41c-.073-.275-.15-.553-.239-.82a7.663 7.663 0 0 1 2.845-.582c1.618.013 2.549.672 2.549 2.513Zm-3.138 1.705c-1.004.061-1.508.55-1.508 1.348 0 .89.426 1.337 1.386 1.337.774-.065 1.5-.401 2.053-.951v-1.857l-1.931.123Zm14.199-1.504v4.955h1.277v-5.173c0-1.106-.167-2.5-2.269-2.5a5.184 5.184 0 0 0-2.679.906 1.94 1.94 0 0 0-1.792-.906 4.75 4.75 0 0 0-2.512.873l-.061-.045v-.66h-1.22v7.505h1.22v-5.894a4.392 4.392 0 0 1 2.207-.734c.728 0 1.199.43 1.199 1.41v5.218h1.22v-4.972c.005-.34-.025-.679-.09-1.012a4.487 4.487 0 0 1 2.147-.644c1.142 0 1.353.599 1.353 1.673Z"
        clip-rule="evenodd"></path>
    <path class="svg__text" fill="url(#a)"
        d="M29.951 0c-2.101 0-4.573 1.803-6.569 3.918-2.415-2.115-5.69-2.963-9.46-2.963-8.194 0-12.24 4.66-12.24 10.17 0 3.446 1.68 6.36 5.2 7.684v.107l-5.256 3.283a3.577 3.577 0 0 0-.683 2.05c.004 2.028 1.37 3.213 5.155 3.779v.16C2.26 30.2 0 31.15 0 34.117 0 38.041 3.837 40 11.138 40c13.35 0 17.919-4.919 17.919-9.587 0-4.98-2.207-7.632-12.821-7.685-5.358-.054-7.988-.107-7.988-1.587 0-.479.406-.954 1.264-1.59 1.419.277 2.86.414 4.305.41 8.622 0 11.984-5.246 11.984-9.64a9.24 9.24 0 0 0-.842-4.03l.053-.213 5.045-.34a7.867 7.867 0 0 0 1.22-4.098C31.263.213 30.486 0 29.95 0ZM9.301 28.61c5.357.41 11.35-.69 11.35 2.7 0 2.968-3.415 4.612-8.249 4.612-4.361 0-5.203-1.484-5.203-3.55.047-.746.26-1.472.625-2.123a4.957 4.957 0 0 1 1.477-1.64Zm4.362-12.346c-3.31 0-4.045-2.701-4.045-5.829 0-2.487.366-5.562 4.097-5.562 3.627 0 4.256 3.28 4.256 6.042 0 2.763-.682 5.349-4.308 5.349Zm65.199-4.316-.736 5.013a4.956 4.956 0 0 1-.468.41c-2.056-.078-3.373-.078-5.82-.078-3.03 0-3.996 0-6.285.037l-.545-1.955 1.358-.902c3.687-2.46 6.83-5.128 6.83-8.022 0-1.565-.855-2.459-2.757-2.459a9.956 9.956 0 0 0-4.305 1.136l-1.166-2.111C66.91 1.726 69.08.783 71.606.783c3.805 0 6.097 1.762 6.097 5.05 0 3.209-2.797 6.262-6.752 8.53 1.28-.038 3.18-.157 4.81-.194.235-.43 1.32-2.074 1.552-2.504l1.549.283Zm-42.443 7.34 14.866-3.254-14.866 10.247V19.29ZM33.016 4.73l-.378-.135V.635l4.846-.04 13.187 10.34L33.016 4.73Zm3.403 1.64 14.394 6.398-14.386-.373-.008-6.025Zm0 6.303 14.585 1.706-14.585 4.664v-6.37Zm25.61 1.152c0 8.198-3.253 14.346-11.826 14.346a16.604 16.604 0 0 1-5.858-1.017L56.688 14.88l.187-.197.138-.14.712-.72-1.293-.882v.024L43.829 4.62l3.659-3.463a16.737 16.737 0 0 1 4.264-.648c7.683 0 10.293 6.341 10.293 13.325l-.017-.008Zm-5.452.267v.049l-.024-.025.024-.024Zm-5.17 3.836L36.419 35.053v-8.608l14.988-8.517Zm-7.582 17.178 4.423 1.34-.215 2.902H32.796l-.216-2.738 3.838-1.504v-.045l7.357-7.32.05 7.365Z"></path>
    <defs>
        <linearGradient id="a" x1="0" x2="78.841" y1="20.002" y2="20.002"
            gradientUnits="userSpaceOnUse">
            <stop stop-color="#2282AE"></stop>
            <stop offset=".33" stop-color="#339C9F"></stop>
            <stop offset=".75" stop-color="#46B98E"></stop>
            <stop offset="1" stop-color="#4DC488"></stop>
        </linearGradient>
    </defs>
</svg>
